<svg xmlns="http://www.w3.org/2000/svg" viewBox="0 0 120 120" width="120" height="120">
  <rect width="120" height="120" rx="26" fill="#00205B"/>
  <radialGradient id="g" cx="0.5" cy="0.45" r="0.5"><stop offset="0" stop-color="#8FB4E6" stop-opacity="0.55"/><stop offset="1" stop-color="#8FB4E6" stop-opacity="0"/></radialGradient>
  <circle cx="60" cy="56" r="46" fill="url(#g)"/>
  <path d="M14 70 A50 50 0 0 1 106 70" fill="none" stroke="#F5F7FA" stroke-opacity="0.55" stroke-width="2.2" stroke-linecap="round"/>
  <path d="M57 70 L8 56 Q24 62 40 60 Q26 50 12 42 Q30 46 46 52 Q34 40 24 30 Q44 40 56 56 Z" fill="#F5F7FA"/>
  <path d="M63 70 L112 56 Q96 62 80 60 Q94 50 108 42 Q90 46 74 52 Q86 40 96 30 Q76 40 64 56 Z" fill="#F5F7FA"/>
  <path d="M60 10 L66 44 L63 46 L63 74 L57 74 L57 46 L54 44 Z" fill="#F5F7FA"/>
  <path d="M60 78 L63 88 L73 91 L63 94 L60 104 L57 94 L47 91 L57 88 Z" fill="#F5F7FA"/>
</svg>
